<svg xmlns="http://www.w3.org/2000/svg" viewBox="0 0 32 32" fill="none">
  <rect width="32" height="32" rx="7" fill="#0f0a05"/>
  <rect width="32" height="32" rx="7" fill="url(#bg-grad)" opacity="0.6"/>
  <rect x="5" y="18" width="3" height="8" rx="1" fill="#f97316" opacity="0.5"/>
  <rect x="5" y="16" width="3" height="3" rx="0.5" fill="#f97316"/>
  <rect x="10" y="14" width="3" height="10" rx="1" fill="#f97316" opacity="0.5"/>
  <rect x="10" y="12" width="3" height="3" rx="0.5" fill="#f97316"/>
  <rect x="15" y="10" width="3" height="12" rx="1" fill="#f97316" opacity="0.5"/>
  <rect x="15" y="8" width="3" height="3" rx="0.5" fill="#fb923c"/>
  <rect x="20" y="6" width="3" height="14" rx="1" fill="#f97316" opacity="0.5"/>
  <rect x="20" y="4" width="3" height="4" rx="0.5" fill="#fb923c"/>
  <polyline points="6.5,22 11.5,17 16.5,13 21.5,8" stroke="#fdba74" stroke-width="1.5" stroke-linecap="round" stroke-linejoin="round"/>
  <polyline points="19,7 21.5,8 22.5,10.5" stroke="#fdba74" stroke-width="1.5" stroke-linecap="round" stroke-linejoin="round" fill="none"/>
  <defs>
    <linearGradient id="bg-grad" x1="0" y1="0" x2="32" y2="32" gradientUnits="userSpaceOnUse">
      <stop offset="0%" stop-color="#f97316" stop-opacity="0.15"/>
      <stop offset="100%" stop-color="#f97316" stop-opacity="0"/>
    </linearGradient>
  </defs>
</svg>
